# xmcd
#
# Track frame offsets:
# 150
# 15300
# 34090
# 50558
# 64718
# 80726
# 97514
# 120460
# 135519
# 149928
# 165106
#
# Disc length: 2423 seconds
#
#
# Revision: 0
# Processed by: cddbd v1.5.2PL0 Copyright (c) Steve Scherf et al.
# Submitted via: FreeRIP 2.951 
#
DISCID=8509750b
DTITLE=Glen Cummings - Big
DYEAR=2004
DGENRE=Country
TTITLE0=Good Old Days
TTITLE1=Big
TTITLE2=Knowin What I Know Now
TTITLE3=Loving You is Easy
TTITLE4=I'll Always Love That Girl
TTITLE5=As If I Didn't Know
TTITLE6=If I Was An Angel
TTITLE7=Heads You Win (Tails I lose)
TTITLE8=Jeans
TTITLE9=She's Gone
TTITLE10=The Ones Left Behind
EXTD=
EXTT0=
EXTT1=
EXTT2=
EXTT3=
EXTT4=
EXTT5=
EXTT6=
EXTT7=
EXTT8=
EXTT9=
EXTT10=
PLAYORDER=
